<?xml version="1.0" standalone="no"?>
<!DOCTYPE svg PUBLIC "-//W3C//DTD SVG 20010904//EN"
 "http://www.w3.org/TR/2001/REC-SVG-20010904/DTD/svg10.dtd">
<svg version="1.0" xmlns="http://www.w3.org/2000/svg"
 width="512.000000pt" height="512.000000pt" viewBox="0 0 512.000000 512.000000"
 preserveAspectRatio="xMidYMid meet">

<g transform="translate(0.000000,512.000000) scale(0.100000,-0.100000)"
fill="#000000" stroke="none">
<path d="M1615 3194 c-71 -78 -94 -109 -84 -114 8 -4 138 -45 289 -90 151 -45
340 -102 420 -126 79 -24 146 -44 148 -44 1 0 2 32 0 72 l-3 72 -75 39 c-305
156 -585 297 -590 297 -4 0 -51 -48 -105 -106z"/>
<path d="M3125 3164 c-143 -73 -289 -148 -325 -166 l-65 -33 -3 -72 c-2 -40
-1 -73 0 -73 2 0 69 20 148 44 80 24 269 81 420 126 151 45 281 86 289 90 10
5 -13 36 -84 114 -54 58 -103 106 -109 105 -6 -1 -128 -61 -271 -135z"/>
<path d="M1964 2810 c-105 -15 -222 -91 -275 -177 -23 -36 -20 -42 22 -60 25
-11 28 -8 57 32 33 47 82 84 147 111 l40 16 -26 -29 c-40 -43 -52 -72 -52
-130 0 -127 130 -202 238 -138 92 53 108 176 34 260 l-31 35 32 -11 c50 -18
122 -71 155 -115 30 -39 31 -40 63 -27 18 7 32 17 32 22 0 4 -13 26 -28 47
-64 88 -160 146 -269 164 -64 11 -65 11 -139 0z"/>
<path d="M3008 2810 c-64 -11 -145 -50 -193 -91 -39 -35 -95 -105 -95 -120 0
-5 14 -15 32 -22 32 -13 33 -12 63 27 33 44 105 97 155 115 l32 11 -31 -35
c-74 -84 -58 -207 34 -260 108 -64 238 11 238 138 0 58 -12 87 -52 130 l-26
29 40 -16 c65 -27 114 -64 147 -111 29 -40 32 -43 57 -32 42 18 45 24 22 60
-55 90 -169 161 -284 178 -70 10 -74 10 -139 -1z"/>
<path d="M2200 1660 l0 -40 360 0 360 0 0 40 0 40 -360 0 -360 0 0 -40z"/>
</g>
</svg>
